<?xml version="1.0" standalone="no"?>
<!DOCTYPE svg PUBLIC "-//W3C//DTD SVG 20010904//EN"
 "http://www.w3.org/TR/2001/REC-SVG-20010904/DTD/svg10.dtd">
<svg version="1.0" xmlns="http://www.w3.org/2000/svg"
 width="173.000000pt" height="72.000000pt" viewBox="0 0 173.000000 72.000000"
 preserveAspectRatio="xMidYMid meet">
<metadata>
Created by potrace 1.15, written by Peter Selinger 2001-2017
</metadata>
<g transform="translate(0.000000,72.000000) scale(0.100000,-0.100000)"
fill="#000000" stroke="none">
<path d="M942 690 c-79 -19 -96 -68 -95 -275 0 -178 11 -219 63 -249 33 -20
50 -21 350 -21 362 0 365 1 395 79 14 37 16 73 14 218 -4 186 -11 211 -61 240
-27 15 -610 22 -666 8z m110 -148 l47 -87 1 88 0 87 45 0 45 0 0 -165 0 -165
-44 0 -45 0 -48 88 -48 87 -3 -87 -3 -88 -44 0 -45 0 0 165 0 165 48 0 47 0
47 -88z m556 -103 c3 -141 -8 -191 -49 -221 -35 -26 -89 -37 -139 -28 -57 10
-66 22 -50 60 10 24 17 29 32 24 26 -8 84 -8 97 1 6 3 11 15 11 26 0 16 -3 18
-19 9 -45 -23 -110 1 -136 50 -36 70 -6 183 52 196 15 3 33 7 38 9 6 2 44 3
85 2 l75 -2 3 -126z m-358 109 c16 -10 24 -10 40 0 11 6 22 12 25 12 3 0 5
-58 5 -130 l0 -130 -44 0 -45 0 -3 130 c-2 72 -2 130 0 130 1 0 11 -6 22 -12z"/>
<path d="M60 630 c0 -6 20 -51 45 -100 41 -81 45 -97 45 -160 l0 -70 50 0 50
0 0 76 c0 73 2 80 50 165 28 49 50 91 50 94 0 3 -24 5 -54 5 l-53 0 -23 -52
-22 -53 -20 53 -21 52 -48 0 c-27 0 -49 -5 -49 -10z"/>
<path d="M353 554 c-34 -17 -73 -82 -73 -122 0 -59 44 -117 102 -133 51 -13
119 15 142 60 37 71 8 169 -59 197 -44 18 -72 18 -112 -2z"/>
<path d="M550 485 c0 -95 13 -132 57 -163 43 -30 77 -34 123 -16 66 27 80 56
80 168 l0 96 -45 0 -45 0 0 -73 c0 -84 -16 -120 -47 -101 -15 9 -19 27 -21 93
l-3 81 -49 0 -50 0 0 -85z"/>
<path d="M510 69 c-13 -48 -8 -58 17 -33 17 16 18 16 21 1 4 -20 22 -23 22 -4
0 7 3 8 8 2 4 -6 31 -11 60 -12 42 -1 52 2 52 15 0 13 2 13 14 -3 11 -16 17
-17 29 -7 12 10 16 10 20 0 4 -10 7 -10 15 1 8 11 10 11 14 0 7 -19 15 -9 20
21 2 17 -1 24 -11 22 -9 -2 -12 4 -8 18 3 14 1 20 -6 17 -7 -2 -13 -13 -15
-25 -3 -21 -4 -21 -28 3 -33 33 -42 32 -53 -7 -5 -18 -10 -25 -10 -15 -1 20
-21 23 -39 5 -9 -9 -12 -9 -12 1 0 8 -7 11 -20 8 -15 -4 -20 0 -20 14 0 10 -4
19 -10 19 -5 0 -10 -9 -10 -20 0 -11 -6 -20 -14 -20 -9 0 -12 7 -9 20 3 11 0
20 -5 20 -6 0 -16 -18 -22 -41z"/>
<path d="M1290 64 c-15 -43 -8 -51 30 -37 17 6 30 8 30 3 0 -4 29 -7 65 -7 40
0 65 4 65 11 0 6 5 4 10 -4 8 -12 11 -13 19 -1 5 8 11 9 15 3 5 -8 70 -10 119
-3 4 1 7 12 7 25 0 22 -4 24 -52 24 -29 -1 -59 -5 -65 -11 -9 -6 -13 -6 -13 2
0 6 -11 11 -25 11 -14 0 -25 5 -25 10 0 6 -4 10 -10 10 -5 0 -10 -10 -10 -22
0 -14 -3 -18 -8 -12 -9 14 -62 15 -62 1 0 -5 -8 0 -19 11 -29 34 -57 28 -71
-14z"/>
</g>
</svg>
